<svg width="42" height="42" viewBox="0 0 42 42" xmlns="http://www.w3.org/2000/svg">
<path d="M15.2106 19.6577V13.1214C15.2106 12.7318 15.3482 12.3993 15.6236 12.1239C15.8977 11.8486 16.2314 11.7109 16.6246 11.7109C17.0177 11.7109 17.3514 11.8486 17.6256 12.1239C17.9009 12.3993 18.0386 12.7318 18.0386 13.1214V19.6577C18.0386 20.0474 17.9009 20.3799 17.6256 20.6552C17.3502 20.9305 17.0166 21.0682 16.6246 21.0682C16.2326 21.0682 15.8989 20.9305 15.6236 20.6552C15.3482 20.3799 15.2106 20.0474 15.2106 19.6577ZM22.8178 21.9519V6.12494C22.8178 5.73294 22.9549 5.39927 23.2291 5.12394C23.5044 4.8486 23.8381 4.71094 24.2301 4.71094C24.6232 4.71094 24.9569 4.8486 25.2311 5.12394C25.5064 5.39927 25.6441 5.73294 25.6441 6.12494V21.9519C25.6441 22.4233 25.4994 22.7768 25.2101 23.0124C24.9196 23.2481 24.5947 23.3659 24.2353 23.3659C23.876 23.3659 23.5493 23.2481 23.2553 23.0124C22.9613 22.7768 22.8155 22.4233 22.8178 21.9519ZM7.53857 25.7004V20.1249C7.53857 19.7329 7.67566 19.3993 7.94982 19.1239C8.22516 18.8486 8.55941 18.7109 8.95257 18.7109C9.34574 18.7109 9.67941 18.8486 9.95357 19.1239C10.2277 19.3993 10.3648 19.7329 10.3648 20.1249V25.7022C10.3648 26.1735 10.2202 26.5264 9.93082 26.7609C9.64149 26.9966 9.31657 27.1144 8.95607 27.1144C8.59674 27.1144 8.27007 26.9966 7.97607 26.7609C7.68441 26.5264 7.53857 26.1735 7.53857 25.7022M9.43732 35.9624C9.04649 35.9624 8.77641 35.7845 8.62707 35.4287C8.47774 35.074 8.54541 34.7538 8.83007 34.4679L15.6691 27.6307C15.9222 27.3764 16.2343 27.2346 16.6053 27.2054C16.9763 27.1763 17.3059 27.2889 17.5941 27.5432L22.8178 32.0319L34.6356 20.2124H31.4996C31.2511 20.2124 31.0434 20.1284 30.8766 19.9604C30.7097 19.7924 30.6257 19.5842 30.6246 19.3357C30.6234 19.0872 30.7074 18.8795 30.8766 18.7127C31.0457 18.5459 31.2534 18.4624 31.4996 18.4624H36.2106C36.6119 18.4624 36.9479 18.5978 37.2186 18.8684C37.4892 19.1391 37.6246 19.4751 37.6246 19.8764V24.5874C37.6246 24.8359 37.5406 25.0436 37.3726 25.2104C37.2046 25.3773 36.9963 25.4613 36.7478 25.4624C36.4993 25.4636 36.2917 25.3796 36.1248 25.2104C35.958 25.0413 35.8746 24.8336 35.8746 24.5874V21.4514L23.7926 33.5334C23.5394 33.7866 23.2273 33.9278 22.8563 33.9569C22.4853 33.9861 22.1557 33.8735 21.8676 33.6192L16.6438 29.1304L10.0691 35.7069C9.99441 35.7769 9.90049 35.837 9.78732 35.8872C9.67416 35.9374 9.55749 35.9624 9.43732 35.9624Z"/>
</svg>
